#!OML:ASF F:\twosubjects\two\Thursday\Session 1\justin.ASF
:FULLY-SPECIFIED
:DEGREES
420
root 12.6373 15.6783 -16.3939 4.49832 -73.5236 1.2341
lowerback 14.3613 1.80744 -0.253499
upperback 3.6436 2.34488 2.84412
thorax -4.32552 1.09966 2.71896
lowerneck -20.8458 8.00577 -1.99496
upperneck 16.8853 12.335 -3.63369
head 8.81964 5.23047 0.744986
rclavicle -7.95139e-015 -2.70347e-014
rhumerus -31.0626 -26.8235 -62.9872
rradius 36.7887
rwrist -7.03415
rhand -15.6983 13.4808
rfingers 7.12502
rthumb 10.4911 -16.2374
lclavicle -7.95139e-015 -2.70347e-014
lhumerus -30.7271 6.69556 78.4768
lradius 39.8989
lwrist -10.2384
lhand -0.130436 39.4577
lfingers 7.12502
lthumb 25.4654 67.7764
rfemur -39.2552 -25.2179 19.6047
rtibia 77.9709
rfoot -28.7771 9.51299
rtoes -12.7952
lfemur -41.6363 21.5749 -17.6531
ltibia 75.2586
lfoot -20.8233 -16.5701
ltoes -2.93944
421
root 12.668 15.5567 -16.3928 4.67648 -73.4324 1.39007
lowerback 14.3541 1.6548 -0.243981
upperback 3.71592 2.14101 2.87427
thorax -4.23564 0.996746 2.78318
lowerneck -20.9648 8.06848 -2.28442
upperneck 16.7818 12.4621 -3.4412
head 8.7724 5.2967 0.86972
rclavicle 5.64548e-014 -1.98785e-014
rhumerus -30.632 -26.7497 -62.9312
rradius 36.8674
rwrist -6.46272
rhand -14.9208 13.3019
rfingers 7.12502
rthumb 11.2411 -16.3769
lclavicle 5.64548e-014 -1.98785e-014
lhumerus -30.6332 6.9441 78.4746
lradius 39.9298
lwrist -10.0907
lhand -0.434116 39.2318
lfingers 7.12502
lthumb 25.1745 67.5916
rfemur -40.7327 -25.5156 19.71
rtibia 79.6537
rfoot -28.9389 9.63261
rtoes -13.4885
lfemur -43.0668 21.7039 -17.8819
ltibia 76.8061
lfoot -20.9717 -16.8886
ltoes -4.16033
422
root 12.7059 15.419 -16.3993 4.75216 -73.2555 1.7355
lowerback 14.5011 1.49987 -0.472531
upperback 3.64459 1.91361 2.99475
thorax -4.39026 0.888364 3.07884
lowerneck -20.9038 8.16982 -2.46145
upperneck 16.6064 12.6602 -3.54731
head 8.69969 5.37558 0.879848
rclavicle 1.23246e-014 -3.18055e-015
rhumerus -30.3328 -26.4245 -62.76
rradius 36.9558
rwrist -6.27455
rhand -14.5333 13.2369
rfingers 7.12502
rthumb 11.6149 -16.4212
lclavicle 1.23246e-014 -3.18055e-015
lhumerus -30.6382 7.4141 78.4348
lradius 39.7894
lwrist -10.4004
lhand -0.151811 38.667
lfingers 7.12502
lthumb 25.445 66.9885
rfemur -42.3613 -25.8015 19.8469
rtibia 81.3918
rfoot -29.2246 9.67104
rtoes -13.9647
lfemur -44.7306 21.9209 -18.2492
ltibia 78.4218
lfoot -21.6199 -16.8857
ltoes -6.42105
423
root 12.7328 15.3086 -16.3999 5.12294 -73.2775 1.21164
lowerback 15.1425 1.49249 -0.390413
upperback 3.7259 1.91694 3.13243
thorax -4.65436 0.885404 3.16988
lowerneck -20.9463 8.17873 -2.31699
upperneck 16.572 12.6933 -3.84717
head 8.7284 5.36543 0.766508
rclavicle -4.29375e-014 -1.27222e-014
rhumerus -30.1754 -26.1404 -62.5681
rradius 37.1179
rwrist -6.71727
rhand -14.8519 13.2322
rfingers 7.12502
rthumb 11.3076 -16.443
lclavicle -4.29375e-014 -1.27222e-014
lhumerus -30.6615 7.63701 78.4743
lradius 39.7709
lwrist -10.5962
lhand 0.342915 38.8239
lfingers 7.12502
lthumb 25.9188 67.0771
rfemur -43.1043 -26.4051 19.9825
rtibia 82.9132
rfoot -29.7898 9.84086
rtoes -15.816
lfemur -45.5117 22.2547 -18.0458
ltibia 79.9376
lfoot -21.9963 -17.3396
ltoes -5.70613
424
root 12.7794 15.1863 -16.4232 6.42358 -72.9088 0.316902
lowerback 15.3185 1.47198 -0.141845
upperback 3.66486 1.93699 3.23681
thorax -4.81099 0.893937 3.13305
lowerneck -20.989 8.03629 -2.22022
upperneck 16.375 12.4798 -3.95612
head 8.68137 5.26765 0.684546
rclavicle -2.38542e-014 2.06736e-014
rhumerus -30.0804 -26.5329 -62.3783
rradius 37.2257
rwrist -7.04603
rhand -15.0537 13.3982
rfingers 7.12502
rthumb 11.113 -16.2876
lclavicle -2.38542e-014 2.06736e-014
lhumerus -30.501 7.64507 78.5715
lradius 39.7791
lwrist -10.6842
lhand 0.263525 39.2108
lfingers 7.12502
lthumb 25.8428 67.475
rfemur -44.6701 -27.1857 20.7139
rtibia 84.4945
rfoot -30.2798 9.93773
rtoes -16.9935
lfemur -47.2298 22.2612 -17.8225
ltibia 81.5458
lfoot -21.5786 -18.4943
ltoes -2.09411
